<svg xmlns="http://www.w3.org/2000/svg" viewBox="0 0 292 40">
  <g fill="none">
    <path d="M0.3 0L291.7 0 291.7 40C287.5 40 284.2 40 281.7 40 279.2 40 276.7 40 274.2 40L0.3 40 0.3 0Z" fill="#D0011B"/>
    <path d="M291.7 25.3L291.7 40C287.5 40 284.2 40 281.7 40 279.2 40 276.7 40 274.2 40L0.3 40 0.3 25.5C43.8 31 93 34 145 34 197.8 34 247.7 30.9 291.7 25.3Z" fill="#940012"/>
    <path d="M291.7 8.2L291.7 0 0.3 0 0.3 8.1C44.4 5.5 93.6 4 145.5 4 197.8 4 247.3 5.5 291.7 8.2Z" fill="#FF766F"/>
  </g>
</svg>
