<svg xmlns="http://www.w3.org/2000/svg" width="740" height="549" viewBox="0 0 740 549">
  <g fill="none">
    <g fill="#000000" transform="translate(0 .13)">
      <path d="M93.8878877,548.762937 C90.8400624,548.762937 87.8665743,547.842906 85.3391093,546.21516 L76.3443077,540.199574 C72.2557616,537.439482 69.8769711,532.980872 70.0256455,528.168403 C70.0999827,525.125225 70.1743199,522.860534 70.2486571,521.162015 C63.8556576,520.100442 51.4413447,517.977294 27.2074164,513.80177 C21.5577889,512.810967 16.9488823,508.776987 15.4621383,503.469117 L7.95408075,476.434368 C7.65673194,475.372794 7.50805753,474.240449 7.43372033,473.108103 L0.0743372033,157.112938 C-6.97636393e-14,154.494389 0.743372033,151.87584 2.15577889,149.611149 L82.8859816,19.674503 C85.5621209,15.3574358 90.4683764,12.7388869 95.6719806,12.7388869 L127.85999,12.7388869 C131.353838,12.7388869 134.77335,13.9420039 137.523826,16.1359233 C138.861896,17.1974973 140.051291,18.1882996 141.017675,18.9667871 C144.734535,15.6405222 150.607174,10.4034243 157.743545,3.96320924 C160.494022,1.48620347 164.136545,0.0707715936 167.927742,0.0707715936 L168.299428,0.0707715936 L682.192514,11.8188561 C684.050944,11.8896277 685.835037,12.2434857 687.544793,12.88043 L714.454861,23.5669407 C719.732802,25.6193169 723.300988,30.5025569 723.598337,35.881198 L739.506498,326.610905 C739.72951,330.998743 737.87108,335.174267 734.377231,338.005131 L708.210535,359.661239 L712.522093,365.03988 C714.008837,366.879941 714.975221,369.003089 715.346907,371.26778 L735.640963,485.210046 C736.756021,491.579489 733.262173,497.878161 727.017848,500.49671 C707.095477,508.989301 658.032923,528.946891 633.352972,531.353125 C606.81459,533.971674 574.106221,535.245563 536.268584,535.245563 C457.396812,535.245563 367.59747,529.583835 302.032057,525.408311 C260.551897,522.789762 227.843528,520.737386 209.853925,520.737386 C202.27153,520.737386 199.521054,521.091244 198.629007,521.303559 C181.308439,532.273156 121.690002,543.950469 96.6383642,548.479851 C95.7463178,548.692165 94.7799342,548.762937 93.8878877,548.762937 Z"/>
      <path d="M728.28158,486.483935 C728.876278,489.668656 727.092185,492.782606 723.970023,494.127267 C707.541501,501.133654 656.694854,522.082046 632.6096,524.417509 C482.671461,539.067229 207.772483,506.866154 195.135159,515.217202 C179.003985,525.903712 110.688096,538.784142 95.3002946,541.544234 C93.2931901,541.898092 91.2860856,541.473463 89.6506671,540.411889 L80.6558655,534.396303 C78.5744238,533.051643 77.3850286,530.786952 77.4593658,528.380718 C77.6080402,523.355935 77.8310518,515.217202 77.6080402,515.217202 C77.3850286,515.217202 41.4801594,509.060073 28.4711488,506.795382 C25.6463351,506.299981 23.3418818,504.318376 22.5985098,501.629056 L15.0904523,474.594307 C14.9417779,474.028134 14.8674407,473.532733 14.8674407,472.96656 L7.50805753,156.971395 C7.50805753,155.626734 7.80540634,154.352846 8.54877837,153.2205 L89.2789811,23.2838543 C90.6170508,21.1607065 93.0701785,19.8160462 95.6719806,19.8160462 L127.85999,19.8160462 C129.644082,19.8160462 131.353838,20.382219 132.691908,21.5145645 C135.739733,23.9915702 141.092012,28.3086375 141.240686,28.3086375 C141.389361,28.3086375 156.925836,14.3666335 162.798475,9.05876398 C164.210882,7.7848753 166.143649,7.07715936 168.076417,7.14793096 L681.969503,18.8960155 C682.861549,18.8960155 683.827933,19.1083303 684.645642,19.4621882 L711.55571,30.1486989 C714.231849,31.2102728 715.941605,33.616507 716.090279,36.3058275 L731.99844,327.035534 C732.147115,329.229454 731.180731,331.28183 729.470976,332.768033 L703.30428,354.424141 C700.330792,356.901147 699.884769,361.076671 702.263559,364.049078 L706.575117,369.427719 C707.318489,370.347749 707.764512,371.409323 707.987524,372.541669 L728.28158,486.483935 Z"/>
    </g>
    <g transform="translate(6.69 7.208)">
      <path fill="#969696" d="M692.822734,361.642843 L712.150407,472.754245 L655.654133,501.770599 L620.715647,511.678622 L198.480333,501.062883 L180.639404,506.72461 C180.639404,506.72461 102.58534,532.202384 93.6648761,529.37152 C84.7444117,526.540657 75.8239473,522.294361 75.8239473,522.294361 L71.3637151,524.417509 C71.2150407,524.063651 71.0663663,523.639021 70.9176919,523.214392 C70.7690175,522.648219 70.6946803,522.152818 70.6946803,521.515873 L70.6946803,521.303559 C70.8433547,516.774177 71.0663663,509.697017 70.9176919,508.352357 L74.7088893,502.902944 C74.3372033,502.69063 73.89118,502.549086 73.519494,502.478315 L32.6340322,498.232019 C31.2959626,497.878161 30.1809045,497.241217 29.1401837,496.321186 L19.1789984,498.868963 C17.54358,497.948933 16.2798475,496.391958 15.7594871,494.551896 L8.25142956,467.517147 C8.10275516,466.950975 8.02841795,466.455574 8.02841795,465.889401 L0.669034829,149.894235 C0.669034829,148.549575 0.966383642,147.275686 1.70975567,146.143341 L82.4399584,16.2066949 C83.7780281,14.0835471 86.2311558,12.7388869 88.8329579,12.7388869 L121.169641,12.7388869 C122.061688,12.7388869 122.953734,12.88043 123.771443,13.1635164 L123.920118,18.3298427 C124.66349,18.4713859 125.258187,18.7544723 125.629874,19.1083303 L139.01057,31.8472171 C139.233582,32.0595319 139.753942,32.2718467 140.34864,32.3426183 L134.401663,21.1607065 C134.476001,21.2314781 134.550338,21.2314781 134.550338,21.2314781 C134.699012,21.2314781 150.235488,7.28947414 156.108127,1.98160462 C157.520534,0.707715936 159.453301,-5.31519273e-14 161.386068,0.0707715936 L675.279154,11.8188561 L675.65084,11.8188561 L675.948189,11.8188561 L675.576503,12.3850289 L674.981806,13.3758312 L674.312771,20.5945337 L674.238434,21.1607065 L696.539595,30.3610137 L712.893779,312.031956 L677.955294,343.879173 L692.822734,361.642843 Z"/>
      <path fill="#BABABA" d="M77.3106914 506.016894L76.6416566 519.038868C76.5673194 519.321954 76.4186449 519.534269 76.1956333 519.675812L70.9176919 523.214392 70.6203431 523.426706 70.6946803 521.586645 70.6946803 521.37433C70.8433547 516.844948 71.0663663 509.767789 70.9176919 508.423129L74.7088893 502.973716C76.1212961 503.61066 77.6080402 504.884549 77.3106914 506.016894zM123.771443 13.1635164L123.920118 18.3298427C121.838676 17.8344416 118.790851 17.9052132 117.378444 18.0467564L93.0701785 20.8776201C91.063074 21.0899349 82.7373072 33.7580502 81.7709236 35.3857968L14.0497314 147.204915C12.6373246 149.540377 9.58949922 156.546765 9.66383642 159.236086 9.66383642 159.236086 4.90625542 179.547533 8.92046439 186.05852 14.1240686 194.621882 15.5364755 232.060056 15.6108127 232.130827 15.6108127 314.296647 16.7258707 470.206468 17.0975567 474.240449 17.8409288 481.954553 25.0516375 489.314798 25.0516375 489.314798 25.7206723 491.862576 27.2074164 494.551896 29.2145209 496.321186L19.2533356 498.868963C17.6179172 497.948933 16.3541847 496.391958 15.8338243 494.551896L8.32576676 467.517147C8.17709236 466.950975 8.10275516 466.455574 8.10275516 465.889401L.743372033 149.894235C.743372033 148.549575 1.04072085 147.275686 1.78409288 146.143341L82.5142956 16.2066949C83.8523653 14.0835471 86.305493 12.7388869 88.9072951 12.7388869L121.169641 12.7388869C122.061688 12.7388869 122.953734 12.88043 123.771443 13.1635164zM675.65084 11.8188561L675.65084 11.8188561 675.576503 12.3850289 675.279154 14.9328063C674.981806 17.4805836 674.907468 19.3206451 674.238434 20.5945337 673.495062 22.0099656 672.082655 22.64691 668.960492 22.5761384L630.305146 26.822434 167.481719 12.0311709C166.366661 12.0311709 165.177266 12.3850289 164.359556 13.1635164L144.214174 31.8472171C143.619477 32.4133899 141.686709 32.5549331 140.34864 32.3426183L134.401663 21.1607065C134.476001 21.2314781 134.550338 21.2314781 134.550338 21.2314781 134.699012 21.2314781 150.235488 7.28947414 156.108127 1.98160462 157.520534.707715936 159.453301-.36061171e-14 161.386068.0707715936L675.279154 11.8188561 675.65084 11.8188561z"/>
      <path fill="#777777" d="M74.7832265 502.902944L70.9920291 508.352357C70.9920291 508.210814 70.9920291 508.140042 70.9176919 508.140042 70.6946803 508.140042 34.7898111 501.982914 21.7808006 499.718223 20.8887541 499.576679 20.0710449 499.293593 19.3276728 498.868963L29.2888581 496.321186C30.2552417 497.241217 31.444637 497.878161 32.7827066 498.232019L73.6681684 502.478315C73.9655172 502.549086 74.3372033 502.69063 74.7832265 502.902944zM140.34864 32.3426183C139.753942 32.2718467 139.233582 32.0595319 139.01057 31.8472171L125.629874 19.1083303C125.258187 18.7544723 124.66349 18.5421575 123.920118 18.3298427L123.771443 13.1635164C124.589153 13.4466028 125.332525 13.8712324 126.00156 14.4374051 128.826373 16.7020961 133.583954 20.5945337 134.476001 21.1607065L140.34864 32.3426183z"/>
    </g>
    <path fill="#777777" d="M654.018714,308.63492 C654.167389,310.828839 653.201005,312.881215 651.491249,314.367419 L625.324554,336.023527 C622.351066,338.500532 621.905042,342.676056 624.283833,345.648463 L628.595391,351.027104 C629.338763,351.947135 629.784786,353.008709 630.007798,354.141055 L650.301854,468.08332 C650.896552,471.268042 649.112459,474.381992 645.990296,475.726652 C629.561774,482.73304 578.715127,503.681432 554.629874,506.016894 C404.691735,520.666614 129.792757,488.465539 117.155432,496.816587 C101.024259,507.503098 32.7083694,520.383528 17.3205684,523.14362 C15.3878011,523.497478 13.3063594,523.072848 11.6709409,522.011275 L2.67613932,515.995689 C1.56108127,515.287973 0.669034829,514.226399 0.148674407,513.094054 L4.6089066,510.970906 C4.6089066,510.970906 13.529371,515.217202 22.4498354,518.048065 C31.3702998,520.878929 109.424363,495.401155 109.424363,495.401155 L127.265292,489.739428 L549.500606,500.355167 L584.439092,490.447144 L640.935366,461.43079 L621.607694,350.319388 L606.740253,332.62649 L641.678739,300.779273 L625.324554,19.1083303 L603.023393,9.90802311 L603.766765,2.12314781 L604.733149,0.566172749 L604.733149,0.566172749 C605.402183,0.636944343 606.071218,0.77848753 606.740253,1.0615739 L633.650321,11.7480845 C636.32646,12.8096584 638.036216,15.2158926 638.18489,17.9052132 L654.018714,308.63492 Z" transform="translate(78.054 18.532)"/>
    <g fill="#777777" transform="translate(87.128 59.84)" opacity=".7">
      <ellipse cx="602.707" cy="408.815" transform="rotate(-76.685 602.707 408.815)" rx="16.726" ry="9.554"/>
      <ellipse cx="583.52" cy="425.182" transform="rotate(-76.685 583.52 425.182)" rx="8.772" ry="5.025"/>
      <ellipse cx="20.878" cy="177.011" transform="rotate(-27.265 20.878 177.011)" rx="10.407" ry="13.8"/>
      <ellipse cx="31.725" cy="154.519" transform="rotate(-27.265 31.725 154.52)" rx="6.393" ry="8.422"/>
      <ellipse cx="9.728" cy="152.036" transform="rotate(-30.001 9.728 152.036)" rx="4.906" ry="8.068"/>
      <path d="M563.946343 11.0403686C566.102122 2.12314781 571.305727-2.12314781 575.542947 1.55697506 579.780168 5.23709793 581.489923 15.498979 579.259807 24.4161998 577.104028 33.3334206 571.900424 37.5797162 567.663204 33.8995933 563.425983 30.1486989 561.790565 19.9575894 563.946343 11.0403686zM544.916019 29.7240693C543.875299 23.0007679 546.179752 18.1882996 550.045286 18.9667871 553.910821 19.7452746 557.999367 25.7608601 559.040088 32.4841615 560.080809 39.2074629 557.776356 44.0199312 553.910821 43.2414437 550.045286 42.4629562 545.95674 36.3765991 544.916019 29.7240693z"/>
    </g>
  </g>
</svg>
