<svg xmlns="http://www.w3.org/2000/svg" viewBox="0 0 340 80" preserveAspectRatio="none">
  <g fill="none" transform="matrix(0 1 1 0 0 0)">
    <path fill="#000000" d="M48.7982015,339.569515 C47.0672207,339.569515 45.8359414,337.361739 45.4764439,333.982489 C45.451279,333.745942 45.1169463,330.220258 45.0953764,330.270947 L44.5219778,331.667703 C43.8793737,333.232839 43.0890304,334.084717 42.2751179,334.089499 L8.01320106,332.856073 C7.14735264,332.817791 6.31379485,331.820162 5.6602894,330.040032 L2.60455997,321.772135 C2.03214548,320.222606 1.62501372,318.1607 1.43799032,315.86408 L0.458359414,303.873377 C0.362192953,302.698933 0.324600181,301.484939 0.346915165,300.274476 L2.50390064,185.216663 C2.50576572,185.121741 2.49823277,185.027329 2.48233079,184.946323 L1.29778626,179.066429 C0.9304334,177.240104 0.731369445,175.131122 0.722590136,172.972516 L0.143799032,35.8313085 C0.132393253,33.1239917 0.420062522,30.4875742 0.958061051,28.3687993 L6.96886059,4.79853425 C7.66184124,2.05925188 8.71667499,0.46374893 9.83225881,0.467462843 L9.95089301,0.467462843 L64.8731358,6.04322447 C66.0873747,6.17228141 67.2025598,8.17560482 67.8515732,11.3937028 L71.3171299,28.4927051 C71.3282157,28.5526988 71.3462333,28.5970561 71.3674596,28.6166109 L77.1194209,32.7505594 C78.8574461,34.0110306 80.0626966,38.9705404 79.9882115,44.5554043 L76.8623801,300.66309 C76.8285832,303.614428 76.4378927,306.415082 75.7695074,308.497316 L67.9666125,332.856073 C67.3390281,334.81849 66.505591,336.001131 65.6208908,336.184634 L49.0372674,339.563883 C48.9569796,339.567638 48.877291,339.569515 48.7982015,339.569515 Z"/>
    <path fill="#969696" d="M64.8138187,11.680939 L9.88618345,6.10517738 C9.29701241,6.0480213 8.73387055,6.8665807 8.36730617,8.3129537 L2.35650664,31.8832188 C2.07714514,32.9811155 1.92786961,34.3484682 1.93409698,35.7524594 L2.52726799,172.904931 C2.53172842,174.026008 2.63499094,175.121412 2.82565098,176.070162 L4.0101955,181.950056 C4.22610329,183.025733 4.32918161,184.286128 4.30498352,185.554588 L2.15698548,300.606769 C2.14509962,301.237488 2.16450341,301.870167 2.21450509,302.482252 L3.194136,314.472956 C3.29082259,315.660653 3.5009012,316.727593 3.79629444,317.531176 L6.85202387,325.799073 C7.18442157,326.705003 7.60863763,327.211935 8.04915082,327.229622 L42.2697255,328.463048 C42.6907833,328.47656 43.1008265,328.041676 43.4327001,327.229622 L44.0043013,325.832866 C44.514179,324.596594 45.1912613,324.269834 45.7962332,324.968079 C46.4012052,325.666324 46.8488476,327.291216 46.9809412,329.268436 L46.9809412,329.268436 C47.1762576,332.118849 48.0059597,334.096735 48.9348106,333.926168 L65.518434,330.546919 C65.9690395,330.455942 66.3937866,329.855553 66.7137634,328.857294 L74.5166584,304.515434 C74.8617259,303.433796 75.0633679,301.983056 75.0810696,300.454702 L78.1907236,44.3413851 C78.2311175,41.4723675 77.6156416,38.9176105 76.7239735,38.253104 L70.9720122,34.1191555 C70.4892202,33.768713 70.0700289,32.8357348 69.8054426,31.5227655 L66.3273035,14.4181311 C65.9978901,12.7790363 65.4315657,11.7548181 64.8138187,11.680939 Z"/>
    <path fill="#BABABA" d="M65.220051,14.0802061 L65.2056711,14.1477911 C64.0853191,19.8136662 62.0686739,23.1166104 59.944424,22.7648773 L11.2900215,14.6997352 C11.0912452,14.6652243 10.9040889,14.9946727 10.8100922,15.5445476 L6.47095644,30.9764535 C5.94788746,34.0403063 5.41043858,44.9665463 5.3924637,48.4359091 L5.3924637,167.272849 C5.3924637,167.458707 6.47095644,180.789847 6.47095644,180.789847 C6.49252629,180.98697 4.29779357,295.504102 4.31397096,295.684329 L6.52667856,306.385285 C6.54328311,306.567554 6.57005985,306.739167 6.60576803,306.892173 C6.60576803,306.892173 8.28462173,316.337175 8.15160763,319.902283 L7.95028898,325.309082 C7.93237143,325.826002 7.83538109,326.283377 7.69023394,326.535416 C7.54508679,326.787455 7.36989776,326.802704 7.22050889,326.576301 C7.08267375,326.358882 6.95405466,326.088322 6.83764397,325.770913 L3.78191454,317.503016 C3.48691879,316.699358 3.27742833,315.63222 3.18155358,314.444795 L2.20012519,302.454092 C2.15132702,301.843268 2.13193965,301.213022 2.14260558,300.58424 L4.29959106,185.526428 C4.32366795,184.258004 4.22059897,182.997723 4.00480304,181.921895 L2.82025852,176.042001 C2.62890591,175.094234 2.52558418,173.998202 2.52187552,172.876771 L1.93589447,35.7355631 C1.92999305,34.330017 2.07920897,32.9612209 2.35830412,31.8606904 L8.36730617,8.29042537 C8.73368904,6.84333027 9.29695368,6.02459241 9.88618345,6.08264905 L64.8084262,11.6584107 L64.8084262,11.6584107 C64.991182,11.6623528 65.1585598,11.9796968 65.2444672,12.4851332 C65.3303746,12.9905696 65.3210022,13.602851 65.220051,14.0802061 L65.220051,14.0802061 Z"/>
    <path fill="#777777" d="M78.1781412,44.2343756 L75.0559048,300.342061 C75.0371921,301.870815 74.8349742,303.32108 74.4896961,304.402792 L66.6868011,328.744653 C66.3668243,329.742911 65.9420772,330.343301 65.4914716,330.434277 L48.9078483,333.813527 L48.7874166,333.813527 C47.9027517,333.794295 47.1408276,331.853994 46.9539789,329.14453 C46.8242466,327.251354 46.4074596,325.676257 45.8377389,324.926101 C45.2189183,324.099388 44.5054112,324.397473 43.977339,325.703328 L43.4057378,327.100085 C43.0742336,327.920204 42.6633305,328.361287 42.2409656,328.350407 L8.02039101,327.116981 C7.85369636,327.108114 7.68810099,327.030474 7.52787933,326.886065 L8.08869555,322.718324 C8.01320106,322.780277 9.04136414,320.138831 9.82866384,320.228944 L38.8634859,323.68141 C39.1853738,323.717394 39.5051419,323.504629 39.7945846,323.061881 L42.3901571,319.074367 C43.3580482,317.58825 44.4982382,317.704311 45.4333042,319.384132 L49.2511685,327.787199 C49.5944886,328.401096 50.1157601,327.888576 50.50941,327.787199 L65.069062,322.425456 C65.069062,322.155116 66.8665499,320.499284 67.4057962,318.212658 L73.1577575,294.557912 C73.3962382,293.440267 73.521532,292.123147 73.5172551,290.778785 L75.6742406,47.3094926 C75.7065954,47.5178796 74.0565015,41.6774101 73.4381656,40.6805315 L68.1751211,34.9189112 C67.7851943,34.4902004 67.4485708,33.685834 67.213465,32.6210216 L65.5957259,25.2486256 C65.3704295,24.426477 65.1245949,23.6618516 64.8605534,22.9620001 C64.3716754,21.5121589 64.3009671,19.1521607 64.6951845,17.4425593 L65.7988421,12.6158647 C66.008063,13.0635598 66.1865317,13.6380776 66.3237085,14.3054894 L69.7910627,31.4044917 C70.054213,32.7192653 70.4731331,33.6530788 70.9558349,34.0008818 L76.7077961,38.1348303 C77.6026993,38.7935165 78.2206786,41.3571273 78.1781412,44.2343756 L78.1781412,44.2343756 Z"/>
    <g fill="#777777" opacity=".7" transform="translate(9.527 46.155)">
      <ellipse cx="57.7" cy="27.367" transform="rotate(-27.26 57.7 27.367)" rx="2.516" ry="10.983"/>
      <ellipse cx="59.972" cy="10.599" transform="rotate(-27.26 59.972 10.599)" rx="1.539" ry="6.713"/>
      <ellipse cx="55.006" cy="7.446" transform="rotate(-30 55.006 7.446)" rx="1.181" ry="6.432"/>
      <ellipse cx="6.469" cy="249.493" transform="rotate(-76.69 6.47 249.493)" rx="4.044" ry="7.603"/>
      <ellipse cx="1.834" cy="262.515" transform="rotate(-76.69 1.834 262.515)" rx="2.117" ry="3.982"/>
    </g>
  </g>
</svg>
