<svg xmlns="http://www.w3.org/2000/svg" width="300" height="426" viewBox="0 0 300 426" preserveAspectRatio="none">
  <g fill="none">
    <path fill="#000000" d="M182.993256,425.460628 C176.502077,425.460628 171.88478,422.694414 170.536665,418.460413 C170.442296,418.164033 169.188549,413.746559 169.107662,413.810069 L166.957417,415.560123 C164.547651,417.521146 161.583864,418.588498 158.531692,418.59449 L30.049504,417.049079 C26.8025724,417.001115 23.6767307,415.751144 21.2260852,413.520745 L9.76709988,403.161557 C7.62054554,401.220089 6.09380144,398.636642 5.3924637,395.759112 L1.7188478,380.735466 C1.35822357,379.263957 1.21725068,377.742894 1.30093187,376.226255 L9.38962742,232.065584 C9.39662144,231.946652 9.36837287,231.828359 9.30874046,231.726864 L4.86669849,224.359703 C3.48912525,222.071424 2.74263542,219.428994 2.70971301,216.724388 L0.53924637,44.8945219 C0.496474698,41.5024131 1.57523446,38.1991371 3.59272894,35.5444368 L26.1332272,6.01228115 C28.7319046,2.58012148 32.6875312,0.58105013 36.8709705,0.585703445 L37.3158488,0.585703445 L243.274259,7.57180478 C247.827655,7.73350553 252.009599,10.2435519 254.4434,14.2756394 L267.439237,35.6996835 C267.480809,35.774852 267.548375,35.8304291 267.627973,35.8549302 L289.197828,41.0345245 C295.715423,42.6138207 300.235112,48.8277947 299.955793,55.8253006 L288.233925,376.713165 C288.107187,380.411018 286.642098,383.920073 284.135653,386.52899 L254.874797,417.049079 C252.521355,419.507873 249.395966,420.989652 246.07834,421.21957 L183.889753,425.453571 C183.588674,425.458275 183.289841,425.460628 182.993256,425.460628 Z"/>
    <path fill="#969696" d="M243.05182,14.6355295 L37.0731879,7.64942812 C34.8637965,7.57781492 32.7520146,8.6034217 31.3773982,10.415642 L8.83689989,39.9477976 C7.78929429,41.3233977 7.22951103,43.0366101 7.25286368,44.7957285 L9.47725495,216.639708 C9.49398156,218.044352 9.88121603,219.416827 10.5961912,220.605555 L15.0382331,227.972717 C15.8478873,229.320477 16.234431,230.899677 16.1436882,232.488984 L8.08869555,376.642598 C8.04412359,377.432852 8.1168878,378.225563 8.3043941,378.992469 L11.97801,394.016115 C12.3405847,395.50423 13.1283795,396.841043 14.2361042,397.847886 L25.6950895,408.207074 C26.9415809,409.342151 28.5323911,409.977307 30.1843156,409.999468 L158.51147,411.544878 C160.090437,411.561807 161.628099,411.016924 162.872625,409.999468 L165.01613,408.249414 C166.928171,406.700439 169.46723,406.291028 171.735875,407.165887 C174.004519,408.040747 175.683179,410.076641 176.17853,412.553982 L176.17853,412.553982 C176.910966,416.125381 180.022349,418.603556 183.50554,418.389846 L245.694127,414.155846 C247.383898,414.041857 248.9767,413.289604 250.176613,412.038845 L279.437469,381.539926 C280.731472,380.184697 281.48763,378.367005 281.554011,376.452068 L293.215214,55.5571473 C293.366691,51.962437 291.058656,48.7614767 287.714901,47.9288891 L266.145046,42.7492948 C264.334576,42.3102109 262.762609,41.1412441 261.77041,39.4961709 L248.727388,18.0650701 C247.492088,16.0113808 245.368371,14.7280956 243.05182,14.6355295 Z"/>
    <path fill="#BABABA" d="M244.575191,17.64167 L244.521266,17.72635 C240.319947,24.8253582 232.757527,28.9637531 224.79159,28.5230521 L42.3375806,18.4179035 C41.5921696,18.3746633 40.8903335,18.7874428 40.5378459,19.4764037 L24.2660866,38.8116741 C22.304578,42.6505015 20.2891447,56.3404374 20.2217389,60.6873449 L20.2217389,209.58304 C20.2217389,209.81591 24.2660866,226.519043 24.2660866,226.519043 C24.3469736,226.766027 16.1167259,370.249257 16.1773911,370.475071 L24.4750446,383.88274 C24.5373117,384.111112 24.6377244,384.326133 24.7716301,384.51784 C24.7716301,384.51784 31.0673315,396.351872 30.5685286,400.818743 L29.8135837,407.593144 C29.7463929,408.240815 29.3826791,408.813878 28.8383773,409.129668 C28.2940755,409.445459 27.6371166,409.464564 27.0769084,409.180895 C26.5600266,408.908482 26.077705,408.569485 25.6411649,408.171791 L14.1821795,397.812602 C13.0759455,396.805666 12.2903562,395.468605 11.9308259,393.980832 L8.25046946,378.957186 C8.06747632,378.19186 7.99477368,377.402199 8.03477091,376.614372 L16.1234665,232.453701 C16.2137548,230.86444 15.8272462,229.285383 15.0180114,227.937433 L10.5759694,220.570272 C9.85839717,219.382775 9.47094068,218.009512 9.45703321,216.604425 L7.25960426,44.7745585 C7.23747395,43.0134919 7.79703365,41.2984709 8.84364047,39.9195709 L31.3773982,10.3874153 C32.7513339,8.57429028 34.8635763,7.5484599 37.0731879,7.62120145 L243.031598,14.6073028 L243.031598,14.6073028 C243.716933,14.612242 244.344599,15.0098554 244.666752,15.6431375 C244.988905,16.2764196 244.953758,17.0435721 244.575191,17.64167 L244.575191,17.64167 Z"/>
    <path fill="#777777" d="M293.16803,55.4230706 L281.459643,376.310935 C281.389471,378.226374 280.631153,380.043471 279.33636,381.398793 L250.075504,411.897712 C248.875591,413.148471 247.282789,413.900724 245.593019,414.014712 L183.404431,418.248713 L182.952812,418.248713 C179.635319,418.224617 176.778103,415.793534 176.077421,412.398735 C175.590925,410.026697 174.027973,408.053192 171.891521,407.113291 C169.570944,406.077468 166.895292,406.450951 164.915021,408.087111 L162.771517,409.837165 C161.528376,410.864726 159.987489,411.417377 158.403621,411.403745 L30.0764663,409.858335 C29.4513614,409.847225 28.8303787,409.749947 28.2295475,409.569011 L30.3326083,404.347077 C30.049504,404.4247 33.9051155,401.115123 36.8574894,401.22803 L145.738072,405.553767 C146.945152,405.598852 148.144282,405.33227 149.229692,404.777534 L158.963089,399.781413 C162.592681,397.919396 166.868393,398.064813 170.374891,400.16953 L184.691882,410.698078 C185.979332,411.467255 187.934101,410.825098 189.410287,410.698078 L244.008982,403.98013 C244.008982,403.64141 250.749562,401.56675 252.771736,398.701743 L274.341591,369.063737 C275.235893,367.663393 275.705745,366.013119 275.689707,364.328713 L283.778402,59.2760113 C283.899733,59.537108 277.711881,52.2193433 275.393121,50.970313 L255.656704,43.7513417 C254.194479,43.2141923 252.93214,42.2063685 252.050494,40.8722211 L245.983972,31.6350427 C245.139111,30.6049389 244.217231,29.6469081 243.227075,28.7700355 C241.393783,26.9534696 241.128627,23.9965308 242.606942,21.8545008 L246.745658,15.8069363 C247.530236,16.367872 248.199494,17.0877089 248.713907,17.9239367 L261.716485,39.3479808 C262.703299,40.9953147 264.274249,42.1653281 266.084381,42.6011048 L287.654235,47.7806991 C291.010122,48.6059942 293.327545,51.8180477 293.16803,55.4230706 L293.16803,55.4230706 Z"/>
    <g fill="#777777" opacity=".7" transform="translate(35.725 57.83)">
      <ellipse cx="216.375" cy="34.289" transform="rotate(-27.26 216.375 34.29)" rx="9.437" ry="13.761"/>
      <ellipse cx="224.895" cy="13.279" transform="rotate(-27.26 224.895 13.28)" rx="5.77" ry="8.412"/>
      <ellipse cx="206.273" cy="9.329" transform="rotate(-30 206.273 9.33)" rx="4.429" ry="8.059"/>
      <ellipse cx="24.259" cy="312.601" transform="rotate(-76.69 24.26 312.6)" rx="15.166" ry="9.527"/>
      <ellipse cx="6.877" cy="328.916" transform="rotate(-76.69 6.877 328.916)" rx="7.94" ry="4.989"/>
    </g>
  </g>
</svg>
