<svg xmlns="http://www.w3.org/2000/svg" width="901" height="282" viewBox="0 0 901 282">
  <g fill="none" transform="rotate(-90 141.128 140.503)">
    <path fill="#000000" d="M171.556177,899.951272 C165.470698,899.951272 161.141982,894.092956 159.878123,885.126146 C159.789653,884.49847 158.614264,875.143098 158.538433,875.2776 L156.522578,878.983882 C154.263423,883.136957 151.484872,885.397407 148.623461,885.410095 L28.17141,882.13721 C25.1274116,882.03563 22.196935,879.38843 19.8994549,874.664868 L9.15665613,852.726074 C7.14426144,848.614413 5.71293885,843.143163 5.05543472,837.049101 L1.61141982,805.231871 C1.2733346,802.115495 1.14117251,798.894172 1.21962363,795.682218 L8.8027757,490.377288 C8.8093326,490.125411 8.78284957,489.874889 8.72694418,489.659943 L4.56252983,474.057694 C3.27105492,469.211554 2.5712207,463.615388 2.54035595,457.887547 L0.505543472,93.9845136 C0.465445029,86.8006712 1.47678231,79.8049599 3.36818338,74.1828085 L24.4999005,11.6393098 C26.9361606,4.37064728 30.6445605,0.136993711 34.5665349,0.14684855 L34.9836083,0.14684855 L228.069618,14.9420848 C232.338427,15.2845363 236.258999,20.600338 238.540687,29.1395337 L250.724285,74.5115916 C250.763258,74.6707842 250.826601,74.7884859 250.901225,74.8403746 L271.122964,85.809772 C277.233209,89.1544216 281.470418,102.314439 281.208556,117.133828 L270.219305,796.713401 C270.100488,804.544752 268.726966,811.976264 266.377175,817.501456 L238.945122,882.13721 C236.738771,887.344467 233.808718,890.482594 230.698444,890.969518 L172.396643,899.936327 C172.114381,899.94629 171.834226,899.951272 171.556177,899.951272 Z"/>
    <path fill="#969696" d="M227.861081,29.9017126 L34.7561137,15.1064763 C32.6848093,14.9548131 30.7050136,17.1268536 29.4163108,20.9647921 L8.28459365,83.5082908 C7.3024634,86.4215506 6.77766659,90.0498093 6.7995597,93.775288 L8.88492652,457.70821 C8.90060771,460.682979 9.26364003,463.589622 9.93392922,466.107122 L14.0983436,481.709371 C14.8573944,484.563672 15.2197791,487.908118 15.1347077,491.273969 L7.58315208,796.563955 C7.54136587,798.237562 7.60958232,799.916372 7.78536947,801.540534 L11.2293844,833.357764 C11.5692982,836.50931 12.3078558,839.340425 13.3463477,841.472727 L24.0891464,863.411522 C25.2577321,865.815399 26.7491167,867.160538 28.2977958,867.207471 L148.604504,870.480357 C150.084785,870.516208 151.526343,869.36225 152.693086,867.207471 L154.702622,863.50119 C156.495161,860.220754 158.875528,859.353699 161.002383,861.206485 C163.129237,863.059272 164.70298,867.370909 165.167372,872.617447 L165.167372,872.617447 C165.854031,880.180992 168.770952,885.429295 172.036443,884.9767 L230.338244,876.00989 C231.922404,875.768484 233.415656,874.175355 234.540574,871.526485 L261.972627,806.935565 C263.185755,804.065447 263.894653,800.215921 263.956885,796.160448 L274.889263,116.56593 C275.031273,108.953016 272.86749,102.17399 269.732719,100.410727 L249.510981,89.4413299 C247.813665,88.5114337 246.339946,86.0357839 245.409759,82.551831 L233.181926,37.1648285 C232.023833,32.8155044 230.032848,30.0977501 227.861081,29.9017126 Z"/>
    <path fill="#BABABA" d="M229.289242,36.2681476 L229.238687,36.4474837 C225.29995,51.4818353 218.210182,60.2461699 210.742116,59.3128489 L39.6914818,37.9120627 C38.992659,37.8204882 38.3346877,38.6946768 38.0042305,40.1537652 L22.7494562,81.1021968 C20.9105419,89.2321044 19.0210731,118.22479 18.9578802,127.430714 L18.9578802,442.763527 C18.9578802,443.256702 22.7494562,478.630767 22.7494562,478.630767 C22.8252878,479.153831 15.1094305,783.024072 15.1663042,783.502302 L22.9453543,811.897199 C23.0037297,812.380849 23.0978667,812.836223 23.2234032,813.242221 C23.2234032,813.242221 29.1256233,838.304454 28.6579956,847.764439 L27.9502347,862.111335 C27.8872433,863.482978 27.5462616,864.696617 27.0359787,865.365401 C26.5256957,866.034184 25.9097968,866.074646 25.3846016,865.473888 C24.9000249,864.89697 24.4478484,864.179039 24.0385921,863.336799 L13.2957933,841.398004 C12.2586989,839.265504 11.522209,836.433861 11.1851493,833.283041 L7.73481512,801.465811 C7.56325905,799.844996 7.49510033,798.172643 7.53259773,796.504176 L15.1157498,491.199245 C15.2003951,487.833492 14.8380433,484.489349 14.0793857,481.634648 L9.91497134,466.032399 C9.24224735,463.517505 8.87900689,460.609196 8.86596864,457.633487 L6.80587899,93.730454 C6.78513182,90.0008493 7.30971905,86.3687604 8.29091294,83.448512 L29.4163108,20.9050133 C30.7043755,17.0651588 32.6846028,14.8926448 34.7561137,15.0466976 L227.842123,29.8419338 L227.842123,29.8419338 C228.484624,29.8523942 229.073062,30.6944638 229.37508,32.0356351 C229.677098,33.3768064 229.644148,35.0014898 229.289242,36.2681476 L229.289242,36.2681476 Z"/>
    <path fill="#777777" d="M274.845028,116.281981 L263.868415,795.861554 C263.802629,799.918091 263.091706,803.766358 261.877838,806.636671 L234.445785,871.227591 C233.320867,873.876462 231.827615,875.46959 230.243455,875.710996 L171.941654,884.677806 L171.518261,884.677806 C168.408111,884.626775 165.729472,879.478203 165.072582,872.288664 C164.616492,867.265136 163.151225,863.085629 161.148301,861.095096 C158.97276,858.90142 156.464336,859.692386 154.607832,863.157462 L152.598297,866.863744 C151.432852,869.039924 149.988271,870.210334 148.503395,870.181463 L28.1966871,866.908578 C27.6106513,866.88505 27.0284801,866.679033 26.4652008,866.295846 L28.4368203,855.23678 C28.17141,855.401172 31.7860458,848.392115 34.5538963,848.63123 L136.629443,857.792321 C137.76108,857.887803 138.885264,857.323232 139.902837,856.148406 L149.027896,845.56757 C152.430638,841.624171 156.439119,841.932138 159.72646,846.389528 L173.148639,868.686995 C174.355624,870.315966 176.188219,868.955999 177.572144,868.686995 L228.758421,854.459657 C228.758421,853.742312 235.077714,849.348575 236.973502,843.281034 L257.195241,780.513365 C258.03365,777.547702 258.474136,774.052736 258.4591,770.485483 L266.042252,124.441778 C266.155999,124.994731 260.354888,109.497095 258.181051,106.851886 L239.67816,91.5634749 C238.307324,90.4258946 237.123882,88.291515 236.297338,85.4660442 L230.609974,65.9034541 C229.817916,63.7218898 228.953654,61.6929625 228.025383,59.8359128 C226.306671,55.9887712 226.058087,49.7265361 227.444008,45.1901234 L231.324054,32.38253 C232.059597,33.5704851 232.687026,35.0949631 233.169288,36.8659349 L245.359205,82.2379927 C246.284343,85.7267331 247.757109,88.2045994 249.454107,89.1274916 L269.675846,100.096889 C272.82199,101.844707 274.994573,108.647227 274.845028,116.281981 L274.845028,116.281981 Z"/>
    <g fill="#777777" transform="translate(36.563 124.688)" opacity=".7">
      <g transform="translate(160.313)">
        <ellipse cx="26.297" cy="47.528" transform="rotate(-27.265 26.297 47.528)" rx="13.626" ry="18.983"/>
        <ellipse cx="40.5" cy="16.589" transform="rotate(-27.265 40.5 16.59)" rx="8.37" ry="11.585"/>
        <ellipse cx="11.698" cy="13.173" transform="rotate(-30.001 11.698 13.173)" rx="6.424" ry="11.098"/>
      </g>
      <g transform="translate(0 646.803)">
        <ellipse cx="34.707" cy="24.337" transform="rotate(-76.685 34.707 24.337)" rx="21.899" ry="13.142"/>
        <ellipse cx="9.371" cy="46.518" transform="rotate(-76.685 9.371 46.518)" rx="11.485" ry="6.912"/>
      </g>
    </g>
  </g>
</svg>
